<svg width="15" height="6" viewBox="0 0 15 6" fill="none" xmlns="http://www.w3.org/2000/svg">
<g id="Beta">
<path d="M1.97793 0.425659C2.54335 0.425659 2.98974 0.544695 3.30221 0.782767C3.61468 1.02084 3.77835 1.35563 3.77835 1.77969C3.77835 2.09216 3.68907 2.35255 3.5254 2.55343C3.36173 2.7543 3.12365 2.88822 2.81119 2.95517C3.58492 3.08909 3.97923 3.49828 3.97923 4.18273C3.97923 4.63656 3.80811 4.99366 3.47332 5.24662C3.13853 5.50701 2.66239 5.63348 2.04489 5.63348H0.065918V0.425659H1.97793ZM0.921489 2.63526H2.00025C2.2904 2.63526 2.5136 2.56831 2.67727 2.43439C2.84094 2.30048 2.92278 2.12192 2.92278 1.88385C2.92278 1.65322 2.84094 1.47466 2.67727 1.34075C2.5136 1.20683 2.2904 1.13987 2.00025 1.13987H0.921489V2.63526ZM0.921489 4.91183H2.05233C2.38712 4.91183 2.64751 4.84487 2.82606 4.71095C3.00462 4.57704 3.10134 4.3836 3.10134 4.13809C3.10134 3.88514 3.00462 3.69171 2.82606 3.55035C2.64007 3.41644 2.37968 3.34204 2.05233 3.34204H0.921489V4.91183Z" fill="#1D2939"/>
<path d="M4.78132 2.70966C4.93756 2.41207 5.15331 2.18888 5.43602 2.02521C5.71873 1.86153 6.03864 1.77969 6.40319 1.77969C6.76774 1.77969 7.08764 1.85409 7.37035 2.00289C7.65307 2.15168 7.86882 2.36743 8.03249 2.63526C8.19617 2.91054 8.278 3.23044 8.28544 3.59499C8.28544 3.69915 8.278 3.79586 8.26312 3.90002H5.39138V3.94466C5.40626 4.27945 5.51042 4.53984 5.70385 4.73327C5.88984 4.92671 6.1428 5.02342 6.45527 5.02342C6.70078 5.02342 6.90909 4.97134 7.0802 4.85231C7.24388 4.73327 7.35548 4.5696 7.41499 4.35385H8.21849C8.14409 4.74071 7.9581 5.06062 7.65307 5.30613C7.34804 5.55909 6.96861 5.67812 6.51478 5.67812C6.11304 5.67812 5.77081 5.60372 5.47322 5.44005C5.17563 5.27637 4.95244 5.05318 4.78876 4.75559C4.62509 4.46544 4.55069 4.12321 4.55069 3.73635C4.55069 3.34948 4.62509 3.00725 4.78132 2.70966ZM7.46707 3.31228C7.42987 3.03701 7.31828 2.82126 7.13228 2.66502C6.94629 2.50879 6.71566 2.42695 6.43295 2.42695C6.16512 2.42695 5.94192 2.50879 5.74849 2.67246C5.55506 2.83614 5.4509 3.04445 5.42114 3.31228H7.46707Z" fill="#1D2939"/>
<path d="M9.15148 2.53111H8.48934V1.82433H9.15148V0.760448H9.96241V1.82433H10.8775V2.53111H9.96241V4.51752C9.96241 4.66632 9.99217 4.77791 10.0517 4.83743C10.1112 4.89695 10.2079 4.92671 10.3567 4.92671H10.9668V5.63348H10.193C9.82849 5.63348 9.56066 5.55165 9.39699 5.38053C9.23331 5.21686 9.15148 4.95647 9.15148 4.59936V2.53111Z" fill="#1D2939"/>
<path d="M14.9999 4.93415V5.63348H14.5758C14.3229 5.63348 14.1443 5.5814 14.0401 5.47725C13.9285 5.37309 13.8765 5.2243 13.8765 5.02342C13.5863 5.46237 13.1697 5.67812 12.6192 5.67812C12.1876 5.67812 11.8454 5.5814 11.5925 5.38053C11.3321 5.1871 11.2056 4.91183 11.2056 4.56216C11.2056 4.17529 11.3395 3.87026 11.6222 3.66195C11.8975 3.45364 12.2992 3.34204 12.8349 3.34204H13.7946V3.11141C13.7946 2.9031 13.7202 2.73198 13.5714 2.61295C13.4226 2.49391 13.2143 2.42695 12.9539 2.42695C12.7159 2.42695 12.5224 2.47903 12.3736 2.58319C12.2248 2.68734 12.1356 2.82126 12.1058 2.98493H11.3172C11.3544 2.60551 11.5255 2.30792 11.8231 2.0996C12.1207 1.89129 12.5076 1.77969 12.9911 1.77969C13.497 1.77969 13.8914 1.89873 14.1741 2.1368C14.4493 2.37487 14.5907 2.7171 14.5907 3.16349V4.66632C14.5907 4.84487 14.6725 4.93415 14.8436 4.93415H14.9999ZM13.7946 3.93722H12.7977C12.5448 3.93722 12.3588 3.9893 12.2248 4.08602C12.0909 4.18273 12.024 4.32409 12.024 4.51008C12.024 4.67376 12.0835 4.80767 12.21 4.90439C12.3364 5.00854 12.5076 5.05318 12.7308 5.05318C13.0581 5.05318 13.3185 4.96391 13.5045 4.78535C13.6905 4.6068 13.7872 4.36873 13.7946 4.07114V3.93722Z" fill="#1D2939"/>
</g>
</svg>
