<svg width="18" height="19" viewBox="0 0 18 19" fill="none" xmlns="http://www.w3.org/2000/svg">
<g id="Envelope">
<path id="Vector" d="M15.75 3.99048H2.25C2.10082 3.99048 1.95774 4.04974 1.85225 4.15523C1.74676 4.26072 1.6875 4.40379 1.6875 4.55298V14.1155C1.6875 14.4138 1.80603 14.7 2.017 14.911C2.22798 15.122 2.51413 15.2405 2.8125 15.2405H15.1875C15.4859 15.2405 15.772 15.122 15.983 14.911C16.194 14.7 16.3125 14.4138 16.3125 14.1155V4.55298C16.3125 4.40379 16.2532 4.26072 16.1477 4.15523C16.0423 4.04974 15.8992 3.99048 15.75 3.99048ZM9 9.97759L3.69633 5.11548H14.3037L9 9.97759ZM6.94055 9.61548L2.8125 13.399V5.83196L6.94055 9.61548ZM7.77305 10.3784L8.6168 11.1553C8.72057 11.2506 8.85632 11.3034 8.99719 11.3034C9.13806 11.3034 9.2738 11.2506 9.37758 11.1553L10.2213 10.3784L14.2995 14.1155H3.69633L7.77305 10.3784ZM11.0595 9.61548L15.1875 5.83126V13.3997L11.0595 9.61548Z" fill="#667085"/>
</g>
</svg>
