<svg width="65" height="22" viewBox="0 0 65 22" fill="none" xmlns="http://www.w3.org/2000/svg">
<g id="WHITE 2" clip-path="url(#clip0_17_334)">
<path id="Vector" d="M8.16696 20.8841C6.15945 20.8259 6.59236 20.1326 5.66778 18.6296H3.77785V20.4561H0.0625V0.059082H3.91969V7.58713H4.00243C4.42529 6.89488 5.02452 6.32885 5.73802 5.9478C6.45158 5.56675 7.25342 5.38445 8.06056 5.41987C8.92702 5.40144 9.78583 5.58633 10.5688 5.95977C11.3519 6.33322 12.0377 6.88494 12.5718 7.57129C13.7433 9.00825 14.329 10.8678 14.329 13.15C14.329 15.5062 13.7617 17.3842 12.627 18.7841C12.0984 19.4603 11.4196 20.0024 10.6451 20.3671C9.87057 20.7318 9.44164 20.921 8.16696 20.8841ZM7.3159 17.6312C7.7658 17.6475 8.21222 17.5467 8.61189 17.3384C9.01157 17.1301 9.35099 16.8215 9.59712 16.4425C10.1356 15.6501 10.4062 14.5473 10.4088 13.1341C10.4693 11.9575 10.1769 10.7897 9.56955 9.78216C9.31214 9.38368 8.95573 9.05966 8.53559 8.84214C8.1155 8.62462 7.64619 8.5212 7.17409 8.54201C4.93882 8.54201 3.82251 10.1005 3.82514 13.2173C3.82514 14.5671 4.1377 15.6369 4.76284 16.4267C5.06191 16.8178 5.44971 17.1312 5.8939 17.3408C6.33803 17.5503 6.82567 17.6499 7.3159 17.6312Z" fill="#1D2939"/>
<path id="Vector_2" d="M24.7521 20.4652C24.7521 19.9379 24.7834 19.409 24.7521 18.8407H22.8921C22.8921 19.5481 22.8921 19.8822 22.1553 20.2948C21.3097 20.6765 20.3862 20.8516 19.4604 20.806C17.9265 20.806 16.6972 20.4163 15.7726 19.6371C14.8428 18.8447 14.3818 17.7551 14.3818 16.3287C14.3818 14.9024 14.8901 13.7573 15.9145 13.0639C16.9388 12.3706 18.373 11.8753 20.2248 11.6217C21.1699 11.5253 22.1023 11.3288 23.0063 11.0353C23.2287 10.9627 23.4212 10.8187 23.5542 10.6254C23.6874 10.4322 23.7537 10.2004 23.7431 9.96553C23.7504 9.7187 23.697 9.47386 23.5878 9.25271C23.4785 9.03156 23.3167 8.84092 23.1167 8.69766C22.5784 8.34925 21.9431 8.18393 21.3043 8.22616C19.5445 8.22616 18.6081 8.9116 18.4951 10.2825H15.0635C15.0796 9.6195 15.2375 8.96778 15.5264 8.3716C15.8154 7.77542 16.2286 7.24883 16.7379 6.82754C17.7886 5.91623 19.3199 5.46057 21.3319 5.46057C25.4189 5.46057 27.4611 7.25806 27.4585 10.8531V18.2979C27.4585 19.3994 27.6279 19.8123 27.9707 20.0579V20.4652H24.7521ZM20.3824 18.0879C21.2921 18.1395 22.1879 17.8453 22.8921 17.2638C23.1825 17.023 23.4161 16.7204 23.5762 16.3778C23.7363 16.0353 23.8189 15.6613 23.818 15.2828V13.1036C22.9576 13.5016 22.0509 13.7891 21.1191 13.9594C20.3015 14.1032 19.515 14.3888 18.7945 14.8033C18.5679 14.9642 18.3863 15.181 18.2669 15.4329C18.1475 15.6847 18.0945 15.9632 18.1129 16.2416C18.1247 17.4817 18.8812 18.0959 20.3942 18.0959L20.3824 18.0879Z" fill="#1D2939"/>
<path id="Vector_3" d="M31.5856 5.98624L30.8086 8.38334H33.058C33.4149 7.64827 33.758 7.08865 34.3899 6.57353C34.9955 6.14663 35.2049 5.95772 35.9439 5.98619C36.3324 5.98589 36.3983 5.98644 36.6445 5.98624V9.38178H36.5578C35.2445 9.25233 34.1939 9.53761 33.4059 10.2376C32.6179 10.9376 32.2239 12.0404 32.2239 13.546V16.7157H28.3667V6.04565L31.5856 5.98624Z" fill="#855BE2"/>
<path id="Vector_4" d="M41.4033 6.04565L40.5223 8.38334H42.3832C42.7401 7.64827 43.0833 7.08865 43.7151 6.57353C44.3207 6.14663 44.5301 5.95772 45.2691 5.98619C45.6576 5.98589 45.7235 5.98644 45.9697 5.98624V9.38178H45.883C44.5697 9.25233 43.5191 9.53761 42.7311 10.2376C41.9431 10.9376 41.5491 12.0404 41.5491 13.546V21.1702H37.6919V6.04565H41.4033Z" fill="#FE6814"/>
<path id="Vector_5" d="M53.5534 20.8837C51.2078 20.8837 49.3691 20.156 48.0374 18.7006C46.7057 17.2451 46.0346 15.3869 46.0241 13.1259C45.9631 11.1023 46.6848 9.13378 48.0374 7.63433C48.6876 6.91242 49.4857 6.34097 50.3768 5.95928C51.2679 5.57759 52.2306 5.39479 53.1987 5.42345C55.4892 5.42345 57.2581 6.21584 58.5059 7.80073C59.7532 9.38557 60.3771 11.5251 60.3771 14.2194H49.8065C49.8935 15.2254 50.3087 16.1741 50.9883 16.9176C51.326 17.2445 51.7269 17.4981 52.166 17.6624C52.6052 17.8267 53.0736 17.8982 53.5415 17.8725C54.9597 17.8725 55.895 17.2729 56.3466 16.0737H60.1486C59.8684 17.4405 59.1025 18.6577 57.9938 19.497C56.8274 20.4241 55.3471 20.8863 53.5534 20.8837ZM53.2261 8.41882C51.3509 8.41882 50.2253 9.4648 49.8497 11.5568H56.3153C56.2949 10.7097 55.9621 9.90039 55.3814 9.28652C55.1008 9.0006 54.7645 8.77598 54.3939 8.62666C54.0228 8.47734 53.6254 8.4066 53.2261 8.41882Z" fill="#1D2939"/>
<path id="Vector_6" d="M60.7749 20.6701V0.273071H64.636V20.6701H60.7749Z" fill="#1D2939"/>
</g>
<defs>
<clipPath id="clip0_17_334">
<rect width="64.5758" height="21.1113" fill="white" transform="translate(0.0600586 0.0598145)"/>
</clipPath>
</defs>
</svg>
